<?xml version="1.0" standalone="no"?>
<!DOCTYPE svg PUBLIC "-//W3C//DTD SVG 20010904//EN"
 "http://www.w3.org/TR/2001/REC-SVG-20010904/DTD/svg10.dtd">
<svg version="1.0" xmlns="http://www.w3.org/2000/svg"
 width="300.000000pt" height="300.000000pt" viewBox="0 0 300.000000 300.000000"
 preserveAspectRatio="xMidYMid meet">
<metadata>
Created by potrace 1.10, written by Peter Selinger 2001-2011
</metadata>
<g transform="translate(0.000000,300.000000) scale(0.100000,-0.100000)"
fill="#000000" stroke="none">
<path d="M2117 1763 c-14 -23 -48 -168 -44 -184 3 -11 1 -17 -4 -13 -5 3 -9
-3 -9 -14 0 -11 -15 -60 -34 -111 -24 -64 -33 -104 -31 -136 2 -40 0 -45 -19
-45 -11 0 -59 -10 -106 -21 -47 -12 -101 -25 -120 -29 -19 -5 -98 -25 -175
-45 -178 -47 -153 -40 -280 -70 -148 -36 -327 -82 -400 -104 -33 -11 -87 -26
-120 -36 -33 -9 -70 -21 -83 -26 -13 -5 -36 -9 -52 -9 -17 0 -30 -4 -30 -10 0
-5 5 -10 11 -10 22 0 160 36 324 85 44 13 166 44 270 69 105 26 213 52 240 60
139 39 205 55 250 61 28 4 56 13 64 19 11 8 13 8 7 -2 -5 -8 -1 -11 13 -9 11
2 24 6 27 10 4 4 16 7 26 7 10 0 18 3 18 8 0 4 26 9 58 10 31 2 59 8 60 13 2
5 13 9 25 9 18 0 19 -2 7 -10 -13 -9 -13 -10 0 -10 17 0 40 19 40 33 0 5 -7 7
-15 3 -12 -4 -15 5 -15 48 0 44 8 69 44 138 24 45 49 101 56 123 6 22 28 71
47 108 27 54 32 71 22 83 -12 15 -65 20 -72 7z m45 -22 c3 8 9 11 13 7 4 -4
-9 -40 -28 -80 -19 -40 -43 -98 -51 -128 -9 -30 -21 -62 -27 -70 -9 -12 -9
-11 -4 5 17 47 36 139 31 152 -3 8 -2 12 3 9 11 -7 24 41 15 56 -4 7 -3 8 5 4
7 -5 13 4 18 24 3 19 9 27 13 20 6 -9 9 -9 12 1z"/>
<path d="M1326 1610 c-24 -50 -123 -183 -166 -225 -30 -29 -48 -39 -77 -41
-53 -3 -53 -3 -53 -14 0 -6 10 -9 23 -7 12 2 16 2 10 0 -7 -3 -13 -10 -13 -17
0 -7 -11 -19 -25 -26 -14 -7 -25 -17 -25 -22 0 -4 -8 -8 -19 -8 -10 0 -24 -6
-30 -14 -7 -8 -23 -17 -36 -20 -29 -7 -33 -31 -8 -45 19 -10 61 2 78 22 6 7
43 40 83 75 56 48 80 62 105 62 18 0 43 3 56 7 21 5 23 4 17 -13 -16 -41 -26
-118 -17 -127 14 -14 61 1 61 18 0 18 -12 19 -28 3 -17 -17 -16 2 4 73 15 53
19 58 60 74 52 20 70 13 50 -18 -22 -35 -27 -72 -12 -92 12 -17 16 -15 63 28
l49 46 -4 -29 c-4 -29 -3 -30 37 -30 23 0 41 5 41 11 0 6 6 9 14 6 8 -3 17 -1
20 6 3 7 3 2 0 -10 -3 -16 1 -23 16 -28 25 -8 68 24 88 66 10 20 18 26 23 18
9 -15 65 5 73 27 3 8 10 14 15 14 5 0 5 -11 -1 -28 -6 -16 -8 -40 -5 -54 9
-35 38 -27 77 21 30 35 30 35 30 10 0 -56 52 -53 81 4 10 19 8 18 -18 -5 -37
-35 -43 -35 -43 2 0 36 30 101 42 93 6 -3 8 5 6 18 -7 54 -58 16 -58 -43 0
-20 -88 -114 -97 -104 -4 4 11 91 23 134 8 26 -13 31 -23 5 -12 -36 -55 -83
-74 -83 -16 0 -18 5 -13 28 10 41 10 44 -2 49 -6 2 -16 -15 -23 -38 -11 -37
-73 -109 -93 -109 -16 0 -7 44 31 158 21 64 41 130 42 146 6 47 -19 43 -31 -6
-25 -97 -73 -229 -91 -252 -12 -15 -31 -26 -44 -26 -21 0 -22 3 -16 33 5 18
13 42 19 54 9 15 9 24 1 28 -11 7 -38 -22 -39 -42 0 -6 -18 -30 -39 -52 -56
-58 -78 -54 -46 9 9 17 12 30 8 30 -5 0 0 5 10 11 9 6 15 15 12 20 -4 5 -11 7
-16 4 -5 -4 -9 1 -9 9 0 12 -7 12 -46 -5 -25 -12 -48 -19 -50 -16 -2 2 2 22
10 43 7 22 17 59 21 84 3 25 12 60 18 77 16 48 -5 66 -27 23z m-37 -163 c-12
-40 -25 -75 -28 -78 -3 -4 -28 -10 -55 -14 l-49 -7 46 51 c25 28 58 72 74 96
36 58 41 42 12 -48z"/>
<path d="M1810 1545 c-6 -8 -9 -19 -5 -26 6 -8 10 -7 16 2 7 12 9 12 9 0 0
-11 3 -11 14 -1 17 13 10 40 -9 40 -7 0 -18 -7 -25 -15z"/>
</g>
</svg>
